<?xml version="1.0"?>
<svg xmlns:rdf="http://www.w3.org/1999/02/22-rdf-syntax-ns#" xmlns="http://www.w3.org/2000/svg" xmlns:cc="http://creativecommons.org/ns#" xmlns:dc="http://purl.org/dc/elements/1.1/" xmlns:svg="http://www.w3.org/2000/svg" id="svg2740" viewBox="0 0 107.73 104.64" version="1.0">
  <g id="layer1" transform="translate(-321.13 -480.04)">
    <g id="g13598" transform="translate(-117.79 231.92)">
      <g id="g11947" transform="matrix(.64604 0 0 .64604 404 233.88)">
        <path id="path11949" d="m310.66 132.06c-1.82 2.04-22.21-18.38-24.89-17.38-2.68 1.01-6.74 33.64-9.57 34.01-2.84 0.37-7.72-33.08-10.49-33.88-2.76-0.8-18.77 19.34-21.18 17.83-2.4-1.52 5.7-26.1 4.37-28.68-1.34-2.57-31.86-3.78-32.49-6.645-0.63-2.87 27.67-10.4 27.9-13.242 0.23-2.843-19-18.902-17.9-21.394s26.86 8.177 28.6 5.992c1.74-2.186-3.39-29.684-0.75-30.508 2.64-0.823 18.5 18.486 21.32 18.393 2.82-0.092 11.3-24.287 14.18-23.722s1.44 25.668 3.67 27.344 24.27-6.283 25.91-4.005c1.63 2.278-12.64 24.445-11.78 27.073s27.01 5.135 26.65 7.852c-0.35 2.717-32.7 3.876-34.04 6.507-1.35 2.635 12.32 32.415 10.49 34.455z" fill="#f5ff12" transform="translate(-162.34 -10.785)"/>
        <path id="path11951" d="m194.52 77.284a39.901 37.407 0 1 1 -79.8 0 39.901 37.407 0 1 1 79.8 0z" transform="matrix(.97997 0 0 .87717 -39.126 6.6049)" stroke="#f5ff12" stroke-miterlimit=".5" stroke-width="10.274" fill="#fff"/>
      </g>
      <path id="path11953" stroke-linejoin="round" d="m110.53 144.97c-9.76 0-18.146 5.06-22.249 12.37-1.638-0.91-3.446-1.46-5.375-1.46-5.833 0-10.687 4.69-12.187 11.06-2.561-1.01-5.539-1.63-8.719-1.63-9.541 0-17.281 5.22-17.281 11.66 0 5.81 6.347 10.58 14.593 11.47-0.369 0.62-0.656 1.25-0.656 1.9 0 6.17 16.882 11.19 37.688 11.19s37.686-5.02 37.686-11.19c0-0.41-0.26-0.78-0.41-1.18 0.92 0.22 1.82 0.46 2.82 0.46 5.56 0.01 10.09-3.78 10.09-8.43 0-4.66-4.53-8.44-10.09-8.44-0.68 0-1.26 0.24-1.91 0.34 0.56-1.86 0.94-3.76 0.94-5.78 0-12.32-11.16-22.34-24.94-22.34z" transform="matrix(.82601 0 0 .86022 409 151.69)" stroke="#6798e9" stroke-linecap="round" stroke-miterlimit=".5" stroke-width="7.3006" fill="#fff"/>
      <path id="path11963" stroke-linejoin="round" d="m526.73 289.57c-4.57 0-8.48 2.33-10.4 5.67-0.77-0.42-1.62-0.68-2.53-0.68-2.73 0-5 2.15-5.7 5.06-1.2-0.46-2.58-0.75-4.07-0.75-4.46 0-8.09 2.39-8.09 5.34 0 2.66 2.97 4.84 6.83 5.25-0.17 0.28-0.31 0.57-0.31 0.87 0 2.82 7.9 5.11 17.64 5.11s17.64-2.29 17.64-5.11c0-0.19-0.13-0.37-0.2-0.55 0.43 0.1 0.86 0.21 1.33 0.21 2.6 0 4.71-1.73 4.71-3.86s-2.11-3.85-4.71-3.85c-0.32 0-0.61 0.1-0.91 0.15 0.27-0.85 0.45-1.72 0.45-2.64 0-5.64-5.23-10.22-11.68-10.22z" stroke="#386195" stroke-linecap="round" stroke-miterlimit=".5" stroke-width="6.154" fill="#386195"/>
      <path id="path11965" d="m472.57 341.3c-8.25 7.27 1.43 13.47 5.12 3.49l2.83-9.26-7.95 5.77z" stroke="#6798e9" stroke-miterlimit="3.2" stroke-width="4" fill="#6798e9"/>
      <path id="path11967" d="m493.44 342.07c-8.25 7.27 1.44 13.47 5.12 3.49l2.83-9.26-7.95 5.77z" stroke="#6798e9" stroke-miterlimit="3.2" stroke-width="4" fill="#6798e9"/>
    </g>
  </g>
  <metadata>
    <rdf:RDF>
      <cc:Work>
        <dc:format>image/svg+xml</dc:format>
        <dc:type rdf:resource="http://purl.org/dc/dcmitype/StillImage"/>
        <cc:license rdf:resource="http://creativecommons.org/licenses/publicdomain/"/>
        <dc:publisher>
          <cc:Agent rdf:about="http://openclipart.org/">
            <dc:title>Openclipart</dc:title>
          </cc:Agent>
        </dc:publisher>
        <dc:title>simple weather symbols</dc:title>
        <dc:date>2008-02-08T23:54:06</dc:date>
        <dc:description>clip art, clipart, clouds, clouds, icon, icon, image, media, png, public domain, rain, rain, snow, snow, sun, sun, svg, symbol, symbol, weather, weather, </dc:description>
        <dc:source>http://openclipart.org/detail/14714/simple-weather-symbols-by-anonymous-14714</dc:source>
        <dc:creator>
          <cc:Agent>
            <dc:title>Anonymous</dc:title>
          </cc:Agent>
        </dc:creator>
        <dc:subject>
          <rdf:Bag>
            <rdf:li>clip art</rdf:li>
            <rdf:li>clipart</rdf:li>
            <rdf:li>clouds</rdf:li>
            <rdf:li>icon</rdf:li>
            <rdf:li>image</rdf:li>
            <rdf:li>media</rdf:li>
            <rdf:li>png</rdf:li>
            <rdf:li>public domain</rdf:li>
            <rdf:li>rain</rdf:li>
            <rdf:li>snow</rdf:li>
            <rdf:li>sun</rdf:li>
            <rdf:li>svg</rdf:li>
            <rdf:li>symbol</rdf:li>
            <rdf:li>weather</rdf:li>
          </rdf:Bag>
        </dc:subject>
      </cc:Work>
      <cc:License rdf:about="http://creativecommons.org/licenses/publicdomain/">
        <cc:permits rdf:resource="http://creativecommons.org/ns#Reproduction"/>
        <cc:permits rdf:resource="http://creativecommons.org/ns#Distribution"/>
        <cc:permits rdf:resource="http://creativecommons.org/ns#DerivativeWorks"/>
      </cc:License>
    </rdf:RDF>
  </metadata>
</svg>
